<svg id="Layer_1" data-name="Layer 1" xmlns="http://www.w3.org/2000/svg" viewBox="0 0 53.57 49.33"><defs><style>.cls-1{fill:#848484;}</style></defs><title>icon-quienes-somos</title><path class="cls-1" d="M49.36,22.45c-.21-1.47-.24-4,1.23-4.84l.07-.06c1.21-.36,2-.86,1.39-1.53l-17.79-5-28.8,3.7s-3.3.44-3,5.17c.16,2.58,1,3.84,1.8,4.46l-2.36.66c-.66.67.18,1.17,1.38,1.53l.07.06c1.47.85,1.45,3.38,1.23,4.84-5.29,1.39-3.39,1.84-3.39,1.84l1.16.26c-.82.68-1.63,2-1.48,4.43.29,4.73,3,5.06,3,5.06l18.85,5.66,28.45-6.36s1.9-.45-3.39-1.84c-.21-1.46-.24-4,1.23-4.84l.07-.06c1.21-.36,2-.86,1.38-1.53l-1.24-.34C50,33.3,51.28,32.1,51.48,29a5.24,5.24,0,0,0-1.17-4.14l2.44-.55S54.65,23.84,49.36,22.45Zm-23.79-.06,4.78-.91,16.17-3.07L48.92,18a7.17,7.17,0,0,0-.61,4.23c0,.26.06.5.09.68l-2.64.61-20.4,4.69ZM5,27l2.41.46L22.95,30.4l1.36.26h0l4.07.77.2,5.76-21-4.82L5.53,31.9c0-.18.06-.42.09-.68A7.17,7.17,0,0,0,5,27Zm-.94-7.28a3.53,3.53,0,0,1,.7-2.63,1.34,1.34,0,0,1,.93-.36l.24,0,12.41,3.74,6.19,1.86-.2,5.8L7,23.64l-.92-.24-.11,0C5.88,23.39,4.16,23.24,4.08,19.71ZM22.76,46.22,4.48,41.49l-.11,0c-.07,0-1.79-.15-1.87-3.68a3.53,3.53,0,0,1,.7-2.63,1.34,1.34,0,0,1,.93-.36l.24,0h0L23,40.42Zm24-6c0,.26.06.5.09.68l-23,5.29.2-5.76,4.93-.94.73.16,2.73-.82,12.57-2.39L47.33,36A7.16,7.16,0,0,0,46.72,40.26ZM48,32.43l-.12,0-1.74.45L29.58,37.18l-.2-5.8,5.43-1.64,13.14-4a1.45,1.45,0,0,1,1.2.33,3.53,3.53,0,0,1,.7,2.63C49.77,32.28,48.05,32.43,48,32.43Z"/></svg>