<svg id="Layer_1" data-name="Layer 1" xmlns="http://www.w3.org/2000/svg" viewBox="0 0 53.57 49.33"><defs><style>.cls-1{fill:#b5b5b5;}.cls-2{fill:#59595b;}.cls-3{fill:#fff;}.cls-4{fill:#848484;}</style></defs><title>icon-quienes-somos-03</title><path class="cls-1" d="M34.61,1.91a20.63,20.63,0,0,0-4.83,1.17l4.64,2.62,4.33-2.87A20.69,20.69,0,0,0,34.61,1.91Z"/><path class="cls-1" d="M34.61,15.07,31,17.51l2.32,6.6h2.61l2.32-6.6Z"/><path class="cls-1" d="M27.75,36.39l-3.77-6-4.29-.76A19.06,19.06,0,0,0,27.75,36.39Z"/><path class="cls-1" d="M18.94,16l-.85-4.89a16.92,16.92,0,0,0-2.79,8.28Z"/><path class="cls-2" d="M48.91,28.85a17,17,0,0,0,2.55-7Z"/><path class="cls-1" d="M48.48,29.5l-4.87.84L40,36.2A19.2,19.2,0,0,0,48.48,29.5Z"/><path class="cls-1" d="M48,18.24l3.46,3.28A16.73,16.73,0,0,0,49,10.74Z"/><path class="cls-2" d="M17.53,7.87l7.31-4.8A19.55,19.55,0,0,0,17.53,7.87Z"/><path class="cls-2" d="M38.75,2.83l7.66,4.69A19.66,19.66,0,0,0,38.75,2.83Z"/><path class="cls-2" d="M32.14,37.71a21.11,21.11,0,0,0,3.78-.34H28.37A21.11,21.11,0,0,0,32.14,37.71Z"/><path class="cls-3" d="M26,17.51l6.08-4.08V7.19L24.84,3.07h0l-7.31,4.8L18.94,16Z"/><path class="cls-3" d="M24,30.35l4.39-6.24L26,17.51,18.94,16l-6.14,5.72,2.54,7.06Z"/><path class="cls-3" d="M32.16,13.42l6.08,4.08L45.34,16l1.07-8.51h0L38.75,2.83h0L32.16,7.19Z"/><path class="cls-3" d="M51.46,21.84,45.34,16l-7.1,1.47-2.32,6.6,4.39,6.24,8.61-1.49h0Z"/><path class="cls-3" d="M35.92,24.11H28.36L24,30.35l4.39,7h7.56l4.39-7Z"/><path class="cls-4" d="M49.88,29.24A17.85,17.85,0,0,0,52.5,22v0a17.63,17.63,0,0,0,.14-2.2A18.1,18.1,0,0,0,47.27,7a1,1,0,0,0-.19-.19,20.77,20.77,0,0,0-7.9-4.83L39,1.89a22.09,22.09,0,0,0-14.48.26l-.18.07a20.65,20.65,0,0,0-7.51,4.92,1,1,0,0,0-.18.18,18.06,18.06,0,0,0-5,12.41,17.6,17.6,0,0,0,.13,2.1v0a17.56,17.56,0,0,0,.84,3.64L1.6,35.68a.92.92,0,0,0,0,1.37,1.11,1.11,0,0,0,1.48,0l10.35-9.56a18.4,18.4,0,0,0,1,1.72.94.94,0,0,0,.12.19,20.43,20.43,0,0,0,11.73,8.48L18.86,44.7a.92.92,0,0,0,0,1.37,1.11,1.11,0,0,0,1.48,0l8.3-7.67a22.19,22.19,0,0,0,3.5.28,20.9,20.9,0,0,0,17.6-9.24A1,1,0,0,0,49.88,29.24Zm-9.07,0L37.07,24l2-5.64,4.72-1L45,17.1l5.36,5.09A16,16,0,0,1,48.23,28ZM27.21,24l-3.73,5.3L16,28a16,16,0,0,1-2.12-5.85l5.37-5,5.95,1.23,1.32,3.76ZM16.88,10.24l.95,5.46-4.09,3.81A16,16,0,0,1,16.88,10.24Zm12.25,12.9-1.85-5.27,4.85-3.25L37,17.88l-1.85,5.27Zm21.42-3.56-4.11-3.9.73-5.77A16.06,16.06,0,0,1,50.55,19.59ZM45.31,7.87l-.93,7.37-2.26.47-3.65.76-5.27-3.53V7.69L38.9,3.92A18.65,18.65,0,0,1,45.31,7.87ZM36.4,3.19,32.1,6,27.3,3.33a19.91,19.91,0,0,1,9.1-.14Zm-11.64,1,6.32,3.57v5.2l-3.71,2.49-1.55,1-5.94-1.23-1.22-7A18.54,18.54,0,0,1,24.76,4.16Zm-7.11,26,5.66,1,2.88,4.61A18.52,18.52,0,0,1,17.65,30.21ZM29,36.5l-3.82-6.12,3.73-5.3h6.42l3.73,5.3L35.26,36.5a20,20,0,0,1-6.23,0Zm9.06-.67L41,31.22l5.64-1A18.52,18.52,0,0,1,38.09,35.83Z"/><path class="cls-4" d="M13.6,35.65,1,47.28A.82.82,0,0,0,1,48.5a1,1,0,0,0,1.32,0L14.92,36.87a.82.82,0,0,0,0-1.22A1,1,0,0,0,13.6,35.65Z"/><path class="cls-4" d="M16.38,47.39a1.1,1.1,0,0,0-.74.28.92.92,0,0,0,0,1.37,1.11,1.11,0,0,0,1.48,0,.92.92,0,0,0,0-1.37A1.1,1.1,0,0,0,16.38,47.39Z"/></svg>