<svg id="Layer_1" data-name="Layer 1" xmlns="http://www.w3.org/2000/svg" viewBox="0 0 53.57 49.33"><defs><style>.cls-1{fill:#848484;}</style></defs><title>icon-quienes-somos</title><path class="cls-1" d="M26.71,4.26c-12.29,0-22.24,9.2-22.24,20.55C4.46,33,9.65,40,17.13,43.34l.7-12.43s-1.31-.4-1.6-.53c-2.78-1.13-4.8-4.46-4.8-8.78,0-4.71,4-8.77,7.78-8.81h0c3.83,0,7.78,4.09,7.78,8.81,0,4.32-2,7.65-4.79,8.78l-1.61.54.78,13.82a23.53,23.53,0,0,0,12.39-.46L34.47,32a7.17,7.17,0,0,1-4.34-2.78c-1.2-1.66.93-16.39.93-16.39h1.38V26.62h1.37V12.8h1.5V26.62H36.7V12.8h1.56V26.62h1.37V12.8h1.06s2.13,14.73.92,16.39A7.19,7.19,0,0,1,37.33,32l-.06,0,.6,10.59A20.3,20.3,0,0,0,49,24.81C49,13.46,39,4.26,26.71,4.26Z"/><path class="cls-1" d="M14.69,19.52a5.58,5.58,0,0,1,.19-.59.26.26,0,0,0-.16-.3.28.28,0,0,0-.35.07l-.37.55a5.74,5.74,0,0,0-.63,1.31,10.09,10.09,0,0,0-.43,1.9,8.36,8.36,0,0,0,0,1.1,4.85,4.85,0,0,0,.23,1.17,7.39,7.39,0,0,0,2,3.35,6.78,6.78,0,0,0,1.06.8l.1.07.18.1a2.14,2.14,0,0,0,.43.16.27.27,0,0,0,.29-.11.23.23,0,0,0-.09-.29,2.67,2.67,0,0,1-.32-.32,5.85,5.85,0,0,1-.41-.52L16,27.49a15.94,15.94,0,0,1-1.4-3.19,4,4,0,0,1-.2-.88,8.29,8.29,0,0,1-.06-.94,11.47,11.47,0,0,1,.08-1.74A6.34,6.34,0,0,1,14.69,19.52Z"/><path class="cls-1" d="M26.71.45C12.17.45.33,11.38.33,24.81S12.17,49.18,26.71,49.18,53.08,38.25,53.08,24.81,41.25.45,26.71.45Zm0,46.91C13.25,47.36,2.3,37.25,2.3,24.81s11-22.55,24.41-22.55S51.12,12.38,51.12,24.81,40.17,47.36,26.71,47.36Z"/></svg>