<?xml version="1.0" encoding="utf-8"?>
<!-- Generator: Adobe Illustrator 16.0.0, SVG Export Plug-In . SVG Version: 6.00 Build 0)  -->
<!DOCTYPE svg PUBLIC "-//W3C//DTD SVG 1.1//EN" "http://www.w3.org/Graphics/SVG/1.1/DTD/svg11.dtd">
<svg version="1.1" id="Layer_1" xmlns="http://www.w3.org/2000/svg" xmlns:xlink="http://www.w3.org/1999/xlink" x="0px" y="0px"
	 width="202.879px" height="64.035px" viewBox="0 0 202.879 64.035" enable-background="new 0 0 202.879 64.035"
	 xml:space="preserve">
<g>
	<path fill-rule="evenodd" clip-rule="evenodd" fill="#FFFFFF" d="M60.358,1.576c0.297-0.555,0.671-0.745,1.289-0.744
		c6.936,0.018,13.873,0.013,20.81,0.017c1.117,0,1.13,0.043,0.895,1.154c-1.211,5.694-2.406,11.394-3.619,17.09
		c-1.019,4.788-8.895,41.701-9.183,43.246c-0.111,0.602-0.407,0.816-0.998,0.813c-4.846-0.011-9.694-0.009-14.544,0.002
		c-0.632,0.002-0.81-0.248-0.675-0.858c0.782-3.521,7.912-38.367,7.912-38.367S41.608,60.979,40.903,62.325
		c-0.309,0.59-0.711,0.84-1.406,0.831c-2.887-0.038-5.776-0.034-8.664-0.005c-0.689,0.006-1.028-0.191-1.12-0.914
		c-0.568-4.528-5.07-38.124-5.07-38.124s-7.391,33.13-8.323,37.434c-0.348,1.604-0.366,1.594-2.005,1.594
		C9.88,63.143,5.446,63.148,1.01,63.153c-1.061,0.002-1.129-0.063-0.908-1.105C0.811,58.696,12.719,2.553,12.797,2.173
		c0.276-1.337,0.275-1.341,1.614-1.341c6.292,0.004,12.584,0.018,18.874-0.005c0.741-0.002,1.038,0.211,1.136,0.968
		c0.838,6.571,4.926,37.488,5.011,37.988C39.52,39.794,57.542,6.851,60.358,1.576"/>
	<path fill-rule="evenodd" clip-rule="evenodd" fill="#FFFFFF" d="M122.204,0.998c3.498,0,6.996,0.019,10.491-0.015
		c0.776-0.008,1.05,0.25,1.123,1.02c0.531,5.584,5.839,57.171,6.137,60.049c0.089,0.873,0.019,0.951-0.87,0.951
		c-5.561,0-11.121-0.004-16.683-0.006c-0.977-0.004-1.028-0.047-1.07-1.005c-0.156-3.467-0.323-6.933-0.444-10.405
		c-0.025-0.705-0.302-0.905-0.961-0.904c-5.738,0.02-11.474,0.021-17.213,0.01c-0.561-0.005-0.876,0.218-1.111,0.703
		c-1.785,3.661-3.598,7.304-5.361,10.979c-0.266,0.552-0.645,0.634-1.143,0.634c-1.987-0.005-3.975-0.009-5.965-0.009
		c-3.823,0.003-7.648,0.005-11.472,0.014c-0.778,0-0.866-0.136-0.493-0.814c2.379-4.316,29.287-53.253,32.543-59.208
		c1.088-1.986,1.071-1.996,3.358-1.996h9.134V0.998z M119.769,27.12c0.011,0,0.02-0.002,0.029-0.002
		c-0.136-3.342-0.265-6.686-0.42-10.028c-0.013-0.257-0.197-0.511-0.3-0.764c-0.193,0.206-0.445,0.382-0.569,0.625
		c-0.688,1.371-1.341,2.755-2.017,4.131c-2.612,5.322-5.227,10.646-7.838,15.969c-0.329,0.671-0.236,0.817,0.551,0.822
		c3.345,0.005,6.691,0.002,10.036,0c0.987-0.002,1.02-0.054,0.974-1.03C120.063,33.599,119.917,30.36,119.769,27.12"/>
	<path fill-rule="evenodd" clip-rule="evenodd" fill="#FFFFFF" d="M153.677,44.755c2.492,0,4.985,0.019,7.479-0.013
		c0.716-0.011,1.102,0.139,1.369,0.912c0.632,1.85,2.074,3.021,3.816,3.745c3.906,1.616,7.846,1.699,11.691-0.177
		c2.032-0.991,2.897-3.025,2.367-4.985c-0.286-1.054-0.958-1.827-1.897-2.257c-1.663-0.762-3.358-1.462-5.086-2.06
		c-3.591-1.245-7.259-2.287-10.805-3.642c-3.018-1.153-5.672-2.967-7.799-5.46c-2.096-2.456-3.27-5.304-3.481-8.518
		c-0.381-5.832,1.356-10.92,5.516-15.088c2.517-2.526,5.556-4.237,8.906-5.408c3.365-1.178,6.832-1.738,10.395-1.798
		c4.55-0.073,9.028,0.327,13.367,1.798c3.673,1.248,6.924,3.164,9.432,6.17c2.607,3.125,3.794,6.793,3.931,10.832
		c0.018,0.53-0.2,0.708-0.736,0.708c-5.015-0.015-10.026,0.005-15.041-0.021c-0.258-0.002-0.697-0.305-0.744-0.53
		c-0.557-2.644-2.241-4.195-4.724-4.969c-3.177-0.993-6.335-0.998-9.329,0.589c-3.375,1.785-3.46,5.647-0.237,7.705
		c2.161,1.383,4.639,1.922,7.049,2.636c4.223,1.251,8.51,2.318,12.381,4.535c5.727,3.273,7.811,7.944,7.567,14.215
		c-0.106,2.707-0.651,5.314-1.853,7.772c-1.872,3.821-4.777,6.647-8.473,8.667c-5.874,3.205-12.251,4.066-18.833,3.901
		c-3.163-0.08-6.288-0.464-9.343-1.263c-4.082-1.069-7.834-2.772-10.826-5.882c-3.06-3.178-4.426-7.033-4.648-11.367
		c-0.034-0.663,0.31-0.765,0.862-0.763c2.575,0.014,5.151,0.003,7.727,0.003V44.755z"/>
</g>
</svg>
